<svg xmlns="http://www.w3.org/2000/svg" version="1.1" xmlns:xlink="http://www.w3.org/1999/xlink" xmlns:svgjs="http://svgjs.com/svgjs" width="1440" height="560" preserveAspectRatio="none" viewBox="0 0 1440 560">
    <g mask="url(&quot;#SvgjsMask1008&quot;)" fill="none">
        <rect width="1440" height="560" x="0" y="0" fill="url(#SvgjsLinearGradient1009)"></rect>
        <path d="M0 0L304.4 0L0 118.03z" fill="rgba(255, 255, 255, .1)"></path>
        <path d="M0 118.03L304.4 0L315.5 0L0 268.90999999999997z" fill="rgba(255, 255, 255, .075)"></path>
        <path d="M0 268.90999999999997L315.5 0L665.24 0L0 343.22999999999996z" fill="rgba(255, 255, 255, .05)"></path>
        <path d="M0 343.22999999999996L665.24 0L854.14 0L0 487.77z" fill="rgba(255, 255, 255, .025)"></path>
        <path d="M1440 560L1330.01 560L1440 365.23z" fill="rgba(0, 0, 0, .1)"></path>
        <path d="M1440 365.23L1330.01 560L874.31 560L1440 349.54z" fill="rgba(0, 0, 0, .075)"></path>
        <path d="M1440 349.53999999999996L874.3100000000001 560L454.15000000000003 560L1440 300.63z" fill="rgba(0, 0, 0, .05)"></path>
        <path d="M1440 300.63L454.1500000000001 560L365.5100000000001 560L1440 145.71z" fill="rgba(0, 0, 0, .025)"></path>
    </g>
    <defs>
        <mask id="SvgjsMask1008">
            <rect width="1440" height="560" fill="#ffffff"></rect>
        </mask>
        <linearGradient x1="15.28%" y1="-39.29%" x2="84.72%" y2="139.29%" gradientUnits="userSpaceOnUse" id="SvgjsLinearGradient1009">
            <stop stop-color="#0e2a47" offset="0"></stop>
            <stop stop-color="rgba(108, 141, 169, 1)" offset="1"></stop>
        </linearGradient>
    </defs>
</svg>